<svg width="482" height="234" viewBox="0 0 482 234" fill="none" xmlns="http://www.w3.org/2000/svg">
<g clip-path="url(#clip0)">
<path d="M180.119 82.0957C201.429 45.498 231.851 20.1611 272.25 7.51143C306.438 -3.51345 343.404 -2.37255 376.842 10.7395C407.07 22.1729 433.084 42.5214 451.414 69.0719C469.745 95.6224 479.521 127.113 479.44 159.345H373.153V106.231H411.895C410.954 104.73 410.276 103.529 409.485 102.478C401.293 89.4788 390.329 78.4384 377.373 70.141C364.418 61.8436 349.788 56.4929 334.523 54.4691C308.58 50.8458 282.208 56.909 260.477 71.4937C238.745 86.0784 223.187 108.156 216.791 133.483C215.416 138.375 214.657 143.418 214.532 148.497C214.532 149.886 214.08 157.543 214.08 158.894C214.08 179.94 214.08 201.01 214.08 222.105V232.728H205.835L205.345 224.132C204.517 225.258 203.914 226.122 203.237 226.947C201.196 229.244 198.675 231.067 195.851 232.287C193.027 233.507 189.969 234.095 186.892 234.009C183.816 233.924 180.796 233.166 178.045 231.79C175.294 230.414 172.879 228.454 170.97 226.047C167.782 222.047 165.833 217.208 165.36 212.121C164.652 207.856 164.817 203.492 165.846 199.292C166.875 195.092 168.746 191.144 171.347 187.685C174.733 183.413 179.611 180.573 185.006 179.731C190.402 178.889 195.917 180.108 200.451 183.143C201.774 184.324 203.031 185.577 204.216 186.896V159.495H160.202C160.238 151.497 158.442 143.597 154.951 136.396C151.46 129.196 146.367 122.884 140.059 117.943C132.179 111.594 122.623 107.659 112.546 106.613C102.47 105.567 92.3052 107.456 83.2826 112.049C74.4775 116.472 67.0728 123.239 61.8892 131.6C56.7056 139.962 53.9457 149.591 53.9153 159.42H10.1279V188.51C11.0692 187.384 11.8599 186.333 12.7258 185.357C14.945 183.212 17.6044 181.572 20.5207 180.55C23.4369 179.528 26.5408 179.148 29.6184 179.437C32.696 179.726 35.6742 180.677 38.3478 182.224C41.0214 183.771 43.3268 185.877 45.1051 188.398C48.2696 193.19 49.958 198.801 49.962 204.538C50.6243 212.497 48.1227 220.397 42.9967 226.535C39.9087 229.935 35.8529 232.314 31.3718 233.353C26.8908 234.393 22.1982 234.044 17.9216 232.353C14.2288 230.751 11.0596 228.15 8.77253 224.845C8.77253 226.985 8.50898 229.162 8.50898 231.302C8.50898 232.578 8.05718 233.066 6.77707 232.991C4.59334 232.728 2.37197 232.728 0 232.728C0 232.127 0 231.715 0 231.302C0 208.054 0.125501 184.757 0.376504 161.409C-0.041065 135.938 8.7531 111.168 25.1504 91.6298C41.8806 71.0536 65.9259 57.7028 92.281 54.3565C107.84 52.0268 123.726 53.2305 138.753 57.8776C153.78 62.5248 167.56 70.4955 179.065 81.1948L180.119 82.0957ZM9.63849 207.128H9.97735C9.97735 208.817 9.97735 210.544 9.97735 212.233C10.1131 215.284 11.2023 218.216 13.0927 220.619C14.9831 223.022 17.5798 224.775 20.5194 225.634C23.4752 226.566 26.6563 226.506 29.5742 225.462C32.4921 224.417 34.9855 222.447 36.6715 219.853C38.7701 216.454 40.0374 212.61 40.371 208.633C40.7045 204.655 40.095 200.655 38.5916 196.956C37.9302 194.765 36.7347 192.772 35.1119 191.154C33.4891 189.536 31.4896 188.344 29.292 187.685C27.4113 187.096 25.4307 186.894 23.4694 187.088C21.508 187.283 19.6065 187.872 17.8794 188.819C16.1523 189.766 14.6352 191.051 13.4195 192.598C12.2038 194.145 11.3147 195.921 10.8057 197.819C10.1817 200.889 9.7915 204 9.63849 207.128V207.128ZM204.592 206.453H204.253C204.253 204.238 204.253 202.023 204.253 199.846C204.062 197.098 203.048 194.471 201.343 192.303C199.639 190.135 197.321 188.526 194.69 187.685C191.969 186.736 189.016 186.671 186.256 187.501C183.496 188.33 181.07 190.011 179.329 192.302C176.691 195.939 175.08 200.216 174.663 204.685C174.246 209.154 175.038 213.653 176.957 217.714C178.088 220.463 180.093 222.767 182.664 224.272C185.234 225.777 188.229 226.4 191.189 226.047C194.193 225.836 197.045 224.651 199.309 222.671C201.573 220.692 203.125 218.028 203.726 215.086C204.201 212.23 204.491 209.346 204.592 206.453V206.453Z" fill="white"/>
<path d="M230.646 208.479C230.444 210.715 230.707 212.968 231.417 215.098C232.128 217.228 233.272 219.19 234.777 220.859C236.282 222.529 238.116 223.871 240.165 224.802C242.214 225.734 244.434 226.233 246.685 226.271C249.39 226.34 252.097 226.202 254.78 225.858C257.416 225.483 260.014 224.619 262.837 223.944C263.327 225.783 263.892 227.697 264.268 229.837C264.268 230.212 263.515 230.963 262.95 231.188C257.349 233.267 251.369 234.137 245.405 233.74C242.708 233.62 240.038 233.153 237.461 232.352C233.799 231.279 230.483 229.27 227.841 226.524C225.199 223.778 223.323 220.391 222.401 216.699C220.111 208.972 220.699 200.68 224.057 193.352C226.294 188.069 230.413 183.8 235.621 181.367C240.828 178.934 246.755 178.51 252.258 180.176C261.294 182.654 265.435 189.448 267.017 198.081C267.289 200.938 267.389 203.808 267.318 206.677C267.318 208.141 266.791 208.516 265.36 208.516H230.646V208.479ZM257.98 201.459C258.255 197.595 257.134 193.76 254.818 190.649C252.994 188.562 250.546 187.114 247.835 186.519C245.123 185.925 242.292 186.214 239.758 187.346C237.115 188.66 234.883 190.669 233.304 193.157C231.724 195.645 230.857 198.516 230.797 201.459H257.98Z" fill="white"/>
<path d="M98.7949 224.582C97.6233 226.067 96.3661 227.483 95.0298 228.823C92.1288 231.457 88.5108 233.176 84.6315 233.764C80.7522 234.352 76.7853 233.782 73.2303 232.126C70.8328 230.903 68.7666 229.121 67.2068 226.932C65.6469 224.743 64.6393 222.211 64.2695 219.552C63.7499 216.917 63.4726 214.241 63.4412 211.557C63.4412 201.685 63.4412 191.85 63.4412 181.978C63.4412 181.64 63.4412 181.265 63.4412 180.739H73.042V182.616C73.042 191.813 73.042 201.009 73.042 210.168C73.0769 212.857 73.4565 215.532 74.1715 218.125C74.5705 219.676 75.3148 221.118 76.3491 222.343C77.3834 223.568 78.6812 224.544 80.1461 225.201C81.6111 225.857 83.2055 226.176 84.8109 226.134C86.4164 226.092 87.9917 225.689 89.4199 224.957C91.983 223.987 94.1777 222.243 95.6967 219.968C97.2158 217.693 97.9831 215.001 97.8912 212.27C97.8912 202.36 97.8912 192.451 97.8912 182.541C97.8912 181.002 98.3054 180.477 99.8491 180.552C101.868 180.664 103.892 180.664 105.911 180.552C107.341 180.552 107.68 181.002 107.68 182.353C107.68 192.188 107.68 202.06 107.68 211.894C107.68 218.313 107.869 224.769 108.057 231.188C108.057 232.352 107.831 232.877 106.551 232.802C104.668 232.802 102.786 232.802 100.866 232.802C99.6985 232.802 99.3596 232.314 99.322 231.263C99.0961 228.973 98.9455 226.946 98.7949 224.582Z" fill="white"/>
<path d="M477.783 224.056L479.439 230.775C477.218 231.451 475.072 232.277 472.851 232.765C467.639 233.977 462.238 234.142 456.962 233.252C452.93 232.757 449.131 231.097 446.033 228.476C442.936 225.855 440.675 222.387 439.53 218.501C437.8 213.76 437.286 208.664 438.036 203.675C438.786 198.686 440.775 193.963 443.822 189.936C447.3 185.471 452.366 182.51 457.972 181.665C463.578 180.819 469.296 182.155 473.942 185.394C476.228 187.223 478.114 189.499 479.487 192.08C480.859 194.662 481.689 197.496 481.924 200.408C482.114 203.358 482.114 206.317 481.924 209.267H447.06C446.62 213.234 447.752 217.216 450.213 220.364C452.675 223.512 456.271 225.577 460.238 226.121C466.167 226.973 472.216 226.262 477.783 224.056V224.056ZM446.872 202.698H473.227C473.227 201.572 473.227 200.596 472.926 199.658C472.799 197.452 472.077 195.322 470.834 193.493C469.591 191.664 467.876 190.205 465.868 189.27C463.861 188.335 461.637 187.959 459.433 188.182C457.228 188.405 455.126 189.218 453.348 190.536C451.498 192.02 449.969 193.863 448.856 195.954C447.743 198.044 447.068 200.339 446.872 202.698V202.698Z" fill="white"/>
<path d="M271.384 180.589C274.584 180.589 277.672 180.589 280.721 180.589C281.211 180.589 281.926 181.453 282.114 182.091C286.745 195.454 291.301 208.892 295.894 222.292C295.985 222.469 296.099 222.633 296.233 222.78C296.233 222.33 296.534 221.992 296.647 221.654C301.191 208.441 305.734 195.216 310.277 181.978C310.314 181.744 310.396 181.519 310.52 181.317C310.644 181.114 310.807 180.938 311 180.799C311.192 180.659 311.41 180.559 311.641 180.504C311.873 180.449 312.113 180.439 312.348 180.477C315.096 180.477 317.845 180.477 320.894 180.477C319.539 183.93 318.334 187.158 317.129 190.386C311.733 203.974 306.424 217.537 301.203 231.075C301.076 231.636 300.743 232.129 300.268 232.456C299.794 232.783 299.214 232.92 298.643 232.84C296.75 232.727 294.851 232.727 292.958 232.84C292.444 232.928 291.916 232.812 291.487 232.518C291.058 232.223 290.762 231.773 290.661 231.263C286.519 220.528 282.403 209.755 278.312 198.945C276.203 193.352 274.02 187.684 271.911 182.203C271.708 181.675 271.532 181.136 271.384 180.589Z" fill="white"/>
<path d="M153.086 182.504L150.79 189.223C147.867 188.252 144.887 187.462 141.867 186.858C139.868 186.635 137.846 186.814 135.918 187.383C134.704 187.684 133.613 188.35 132.791 189.29C131.969 190.23 131.457 191.399 131.325 192.638C131.074 193.864 131.224 195.138 131.753 196.273C132.281 197.408 133.16 198.344 134.261 198.944C136.483 200.221 138.892 201.159 141.189 202.323C143.885 203.481 146.479 204.862 148.945 206.452C150.991 207.938 152.614 209.93 153.656 212.23C154.697 214.531 155.121 217.062 154.886 219.575C154.65 222.089 153.764 224.498 152.313 226.566C150.862 228.635 148.897 230.292 146.611 231.376C143.425 232.857 139.96 233.651 136.445 233.703C131.711 233.92 126.989 233.073 122.627 231.225C122.06 230.98 121.507 230.705 120.971 230.4C120.795 230.322 120.63 230.221 120.481 230.099L122.853 222.93C126.763 225.359 131.273 226.659 135.88 226.684C137.149 226.659 138.412 226.495 139.645 226.196C141.068 225.863 142.364 225.125 143.373 224.071C144.383 223.017 145.063 221.693 145.33 220.26C145.598 218.827 145.441 217.348 144.88 216.002C144.318 214.657 143.376 213.503 142.168 212.683C140.366 211.628 138.505 210.675 136.596 209.83C133.731 208.63 130.951 207.238 128.275 205.663C126.329 204.411 124.736 202.683 123.648 200.644C122.56 198.606 122.012 196.323 122.057 194.014C122.103 191.705 122.739 189.446 123.906 187.451C125.074 185.456 126.733 183.792 128.727 182.616C136.596 177.586 144.803 178.825 153.086 182.504Z" fill="white"/>
<path d="M413.74 189.786C413.74 195.716 413.74 201.347 413.74 206.977C413.74 211.256 413.74 215.535 414.079 219.777C414.493 224.694 416.978 226.534 421.873 226.158C423.153 226.158 424.433 225.858 425.638 225.67C425.638 227.472 425.863 229.424 426.052 231.113C426.052 232.201 425.826 232.915 424.659 232.99C421.339 233.426 417.988 233.564 414.644 233.403C412.137 233.107 409.81 231.954 408.059 230.14C406.309 228.327 405.243 225.965 405.043 223.456C404.716 221.104 404.54 218.735 404.516 216.361C404.516 208.253 404.516 200.183 404.516 192.113V189.786C402.37 189.786 400.374 189.786 398.379 189.786C397.099 189.786 396.647 189.373 396.722 188.097C396.797 186.82 396.722 185.281 396.722 183.893C396.722 182.504 397.099 182.579 398.04 182.616C400.111 182.616 402.181 182.616 404.516 182.616C404.516 179.163 404.516 175.86 404.516 172.594C404.516 171.168 404.817 170.492 406.285 170.192C408.657 169.704 410.992 168.991 413.589 168.315V182.616C417.354 182.616 420.856 182.616 424.395 182.616C426.089 182.616 426.767 182.954 426.729 184.793C426.729 189.786 426.729 189.786 421.722 189.786H413.74Z" fill="white"/>
<path d="M329.591 230.175L331.7 223.906C335.465 224.882 338.891 226.121 342.505 226.721C344.635 226.96 346.792 226.742 348.831 226.083C350.068 225.762 351.177 225.073 352.011 224.107C352.845 223.141 353.364 221.945 353.499 220.678C353.767 219.42 353.656 218.111 353.18 216.916C352.704 215.721 351.886 214.692 350.826 213.959C348.755 212.57 346.346 211.707 344.162 210.506C340.956 209.056 337.914 207.269 335.088 205.176C333.537 203.731 332.363 201.931 331.667 199.932C330.97 197.933 330.773 195.794 331.092 193.702C331.411 191.61 332.236 189.627 333.497 187.924C334.757 186.221 336.415 184.85 338.326 183.93C341.633 182.21 345.308 181.312 349.038 181.312C352.768 181.312 356.442 182.21 359.749 183.93C359.981 184.102 360.165 184.33 360.284 184.593C360.403 184.856 360.452 185.144 360.427 185.432C359.9 187.308 359.222 189.185 358.657 190.724C355.797 189.797 352.879 189.057 349.923 188.51C347.93 188.231 345.898 188.451 344.011 189.148C342.929 189.519 341.971 190.185 341.249 191.071C340.526 191.957 340.066 193.026 339.921 194.159C339.776 195.291 339.952 196.442 340.428 197.48C340.905 198.518 341.664 199.402 342.618 200.033C344.778 201.288 347.017 202.404 349.32 203.374C352.038 204.644 354.678 206.072 357.227 207.653C358.929 209.029 360.287 210.779 361.196 212.768C362.104 214.756 362.536 216.927 362.46 219.11C362.383 221.293 361.799 223.429 360.754 225.349C359.709 227.269 358.23 228.921 356.436 230.175C352.312 232.392 347.699 233.553 343.014 233.553C338.328 233.553 333.716 232.392 329.591 230.175V230.175Z" fill="white"/>
<path d="M384.034 182.804V232.727H374.998V182.804H384.034Z" fill="white"/>
<path d="M324.96 227.359C325.024 228.216 324.906 229.076 324.615 229.884C324.323 230.693 323.864 231.431 323.267 232.05C322.671 232.67 321.95 233.157 321.152 233.481C320.354 233.804 319.496 233.957 318.635 233.928C317.786 233.92 316.948 233.739 316.172 233.395C315.396 233.051 314.699 232.553 314.124 231.93C313.549 231.308 313.108 230.574 312.828 229.775C312.549 228.976 312.436 228.128 312.498 227.284C312.433 226.426 312.552 225.564 312.846 224.755C313.14 223.946 313.603 223.208 314.205 222.591C314.806 221.973 315.532 221.49 316.335 221.173C317.138 220.857 317.999 220.713 318.861 220.753C319.712 220.738 320.556 220.903 321.338 221.237C322.12 221.571 322.823 222.066 323.399 222.69C323.975 223.315 324.412 224.053 324.681 224.858C324.95 225.663 325.045 226.515 324.96 227.359V227.359Z" fill="white"/>
<path d="M379.516 163.06C380.289 163.033 381.06 163.167 381.779 163.453C382.498 163.739 383.149 164.171 383.691 164.722C384.233 165.273 384.653 165.93 384.926 166.652C385.199 167.374 385.319 168.145 385.276 168.916C385.267 169.671 385.105 170.417 384.801 171.11C384.496 171.802 384.055 172.425 383.503 172.944C382.951 173.462 382.301 173.865 381.59 174.127C380.879 174.389 380.122 174.506 379.365 174.471C378.612 174.477 377.866 174.33 377.173 174.038C376.479 173.747 375.852 173.318 375.331 172.777C374.809 172.236 374.404 171.594 374.139 170.892C373.875 170.189 373.757 169.44 373.793 168.69C373.76 167.936 373.886 167.183 374.163 166.48C374.44 165.777 374.862 165.14 375.401 164.609C375.94 164.079 376.585 163.667 377.294 163.4C378.003 163.133 378.759 163.017 379.516 163.06V163.06Z" fill="white"/>
</g>
<defs>
<clipPath id="clip0">
<rect width="482" height="234" fill="white"/>
</clipPath>
</defs>
</svg>
