<svg xmlns="http://www.w3.org/2000/svg" viewBox="0 0 128.02 62.34"><g id="Слой_2" data-name="Слой 2"><g id="Слой_1-2" data-name="Слой 1"><g id="rvFbHD.tif"><path d="M47.84,21.87C53.5,12.12,61.58,5.37,72.31,2a41.23,41.23,0,0,1,27.78.86,42.23,42.23,0,0,1,27.25,39.59H99.11V28.3H109.4c-.25-.4-.43-.72-.64-1A27.85,27.85,0,0,0,88.85,14.51,28.21,28.21,0,0,0,57.58,35.56a16.32,16.32,0,0,0-.6,4c0,.37-.12,2.41-.12,2.77q0,8.41,0,16.84V62H54.67l-.13-2.29c-.22.3-.38.53-.56.75a5.59,5.59,0,0,1-8.57-.24,7,7,0,0,1-1.49-3.71A8.53,8.53,0,0,1,45.51,50a5.76,5.76,0,0,1,7.73-1.21,12.76,12.76,0,0,1,1,1V42.49H42.55A14,14,0,0,0,37.2,31.42a13.92,13.92,0,0,0-15.08-1.57,14.18,14.18,0,0,0-7.8,12.62H2.69v7.75c.25-.3.46-.58.69-.84a5.68,5.68,0,0,1,8.6.81,7.83,7.83,0,0,1,1.29,4.3,8.11,8.11,0,0,1-1.85,5.86A6,6,0,0,1,4.76,61.9a5.73,5.73,0,0,1-2.43-2c0,.57-.07,1.15-.07,1.72,0,.34-.12.47-.46.45C1.22,62,.63,62,0,62c0-.16,0-.27,0-.38Q0,52.33.1,43A28.25,28.25,0,0,1,6.68,24.41a27.41,27.41,0,0,1,17.83-9.93,27.75,27.75,0,0,1,23.05,7.15ZM2.56,55.18h.09c0,.45,0,.91,0,1.36a3.9,3.9,0,0,0,2.8,3.57,3.76,3.76,0,0,0,4.29-1.54,6.78,6.78,0,0,0,.51-6.1A3.69,3.69,0,0,0,7.78,50a3.88,3.88,0,0,0-4.91,2.7A16.54,16.54,0,0,0,2.56,55.18ZM54.34,55h-.09c0-.59,0-1.18,0-1.76A3.67,3.67,0,0,0,51.71,50a3.62,3.62,0,0,0-4.08,1.23A6.69,6.69,0,0,0,47,58a3.62,3.62,0,0,0,3.78,2.22,3.66,3.66,0,0,0,3.33-2.92A17.86,17.86,0,0,0,54.34,55Z"/><path d="M61.26,55.54a4.35,4.35,0,0,0,4.26,4.74,14,14,0,0,0,2.15-.11c.7-.1,1.39-.33,2.14-.51.13.49.28,1,.38,1.57,0,.1-.2.3-.35.36a11.22,11.22,0,0,1-4.66.68,8.34,8.34,0,0,1-2.11-.37,5.81,5.81,0,0,1-4-4.17,8.9,8.9,0,0,1,.44-6.22A6.18,6.18,0,0,1,67,48c2.4.66,3.5,2.47,3.92,4.77A19.17,19.17,0,0,1,71,55.06c0,.39-.14.49-.52.49H61.26Zm7.26-1.87a4.32,4.32,0,0,0-.84-2.88,3.44,3.44,0,0,0-4-.88,4.3,4.3,0,0,0-2.38,3.76Z"/><path d="M26.24,59.83a13,13,0,0,1-1,1.13,5.28,5.28,0,0,1-5.79.88,4.45,4.45,0,0,1-2.38-3.35,11.75,11.75,0,0,1-.22-2.13c0-2.63,0-5.25,0-7.88,0-.09,0-.19,0-.33h2.55v.5c0,2.45,0,4.9,0,7.34a8.41,8.41,0,0,0,.3,2.12,2.84,2.84,0,0,0,4.05,1.82A3.49,3.49,0,0,0,26,56.55c0-2.64,0-5.28,0-7.92,0-.41.11-.55.52-.53a14.41,14.41,0,0,0,1.61,0c.38,0,.47.12.47.48,0,2.62,0,5.25,0,7.87,0,1.71.05,3.43.1,5.14,0,.31-.06.45-.4.43-.5,0-1,0-1.51,0-.31,0-.4-.13-.41-.41C26.32,61,26.28,60.46,26.24,59.83Z"/><path d="M126.9,59.69l.44,1.79c-.59.18-1.16.4-1.75.53a10.71,10.71,0,0,1-4.22.13,5.53,5.53,0,0,1-4.63-3.93,8.06,8.06,0,0,1,1.14-7.61,5.87,5.87,0,0,1,8-1.21,5.72,5.72,0,0,1,2.12,4,18.49,18.49,0,0,1,0,2.36h-9.26a4.08,4.08,0,0,0,3.5,4.49A9.1,9.1,0,0,0,126.9,59.69ZM118.69,54h7c0-.3,0-.56-.08-.81a3.26,3.26,0,0,0-5.2-2.43A4.65,4.65,0,0,0,118.69,54Z"/><path d="M72.08,48.11c.85,0,1.67,0,2.48,0,.13,0,.32.23.37.4,1.23,3.56,2.44,7.14,3.66,10.71a.59.59,0,0,0,.09.13c0-.12.08-.21.11-.3q1.81-5.28,3.62-10.57a.48.48,0,0,1,.55-.4c.73,0,1.46,0,2.27,0-.36.92-.68,1.78-1,2.64Q82.08,56.15,80,61.56a.61.61,0,0,1-.68.47,12.68,12.68,0,0,0-1.51,0,.53.53,0,0,1-.61-.42Q75.55,57.32,73.92,53c-.56-1.49-1.14-3-1.7-4.46A4.38,4.38,0,0,1,72.08,48.11Z"/><path d="M40.66,48.62l-.61,1.79a19.83,19.83,0,0,0-2.37-.63,4,4,0,0,0-1.58.14,1.62,1.62,0,0,0-1.22,1.4A1.56,1.56,0,0,0,35.66,53c.59.34,1.23.59,1.84.9A14,14,0,0,1,39.56,55a3.88,3.88,0,0,1-.62,6.64,6.62,6.62,0,0,1-2.7.62,8.4,8.4,0,0,1-3.67-.66,4.51,4.51,0,0,1-.44-.22A.57.57,0,0,1,32,61.3l.63-1.91a6.61,6.61,0,0,0,3.46,1,4.61,4.61,0,0,0,1-.13,2,2,0,0,0,.67-3.6,14.72,14.72,0,0,0-1.48-.76,18.25,18.25,0,0,1-2.21-1.11,3.61,3.61,0,0,1,.12-6.14C36.28,47.31,38.46,47.64,40.66,48.62Z"/><path d="M109.89,50.56c0,1.58,0,3.08,0,4.58,0,1.14,0,2.28.09,3.41.11,1.31.77,1.8,2.07,1.7.34,0,.68-.08,1-.13,0,.48.06,1,.11,1.45,0,.29-.06.48-.37.5a14.85,14.85,0,0,1-2.66.11,2.9,2.9,0,0,1-2.55-2.65,14.88,14.88,0,0,1-.14-1.89c0-2.16,0-4.31,0-6.46v-.62c-.57,0-1.1,0-1.63,0-.34,0-.46-.11-.44-.45s0-.75,0-1.12.1-.35.35-.34c.55,0,1.1,0,1.72,0,0-.92,0-1.8,0-2.67,0-.38.08-.56.47-.64.63-.13,1.25-.32,1.94-.5v3.81c1,0,1.93,0,2.87,0,.45,0,.63.09.62.58,0,1.33,0,1.33-1.33,1.33Z"/><path d="M87.54,61.32l.56-1.67c1,.26,1.91.59,2.87.75a4,4,0,0,0,1.68-.17,1.67,1.67,0,0,0,1.24-1.44A1.74,1.74,0,0,0,93.18,57c-.55-.37-1.19-.6-1.77-.92A13.14,13.14,0,0,1,89,54.66,3.47,3.47,0,0,1,89.86,49a6.15,6.15,0,0,1,5.69,0,.45.45,0,0,1,.18.4c-.14.5-.32,1-.47,1.41a18.36,18.36,0,0,0-2.32-.59,3.23,3.23,0,0,0-1.57.17,1.63,1.63,0,0,0-.37,2.9,15.55,15.55,0,0,0,1.78.89,20.23,20.23,0,0,1,2.1,1.14,3.76,3.76,0,0,1-.21,6A7.51,7.51,0,0,1,87.54,61.32Z"/><path d="M102,48.7V62H99.6V48.7Z"/><path d="M86.31,60.57a1.63,1.63,0,0,1-1.68,1.75A1.65,1.65,0,0,1,83,60.55a1.62,1.62,0,0,1,1.69-1.74A1.6,1.6,0,0,1,86.31,60.57Z"/><path d="M100.8,43.44A1.48,1.48,0,0,1,102.33,45a1.5,1.5,0,0,1-1.57,1.48,1.47,1.47,0,0,1-1.48-1.54A1.44,1.44,0,0,1,100.8,43.44Z"/></g></g></g></svg>